# xmcd
#
# Track frame offsets:
#	150
#	11602
#	27407
#	41184
#	51084
#	73884
#	87165
#	102795
#	112882
#	132110
#	148248
#	166837
#	182912
#	200639
#
# Disc length: 2833 seconds
#
# Revision: 1
# Processed by: cddbd v1.5.2PL0 Copyright (c) Steve Scherf et al.
# Submitted via: audiograbber 1.83.01
#
DISCID=c60b0f0e
DTITLE=Noel Cassidy - The Best Of (Vol. 1)
DYEAR=1900
DGENRE=
TTITLE0=Able Bodied Man
TTITLE1=River Road
TTITLE2=Rocks Of Bawn
TTITLE3=Gonna Have Love
TTITLE4=Out To California
TTITLE5=My Town Ballinamuck
TTITLE6=John Joe Reilly
TTITLE7=We'll Sweep Out The Ashes
TTITLE8=Southern Dixie Flyer
TTITLE9=Good Hearted Woman
TTITLE10=County I Call Home
TTITLE11=It's You, It's You, It's You
TTITLE12=Old Time Waltz
TTITLE13=Streets Of Bakersfield
EXTD=
EXTT0=
EXTT1=
EXTT2=
EXTT3=
EXTT4=
EXTT5=
EXTT6=
EXTT7=
EXTT8=
EXTT9=
EXTT10=
EXTT11=
EXTT12=
EXTT13=
PLAYORDER=
